<svg width="201" height="41" viewBox="0 0 201 41" fill="none" xmlns="http://www.w3.org/2000/svg">
<path d="M65.7893 29V27.768C66.6986 26.448 67.762 24.8933 68.9793 23.104C70.2113 21.3147 71.612 19.1807 73.1813 16.702C73.416 16.35 73.6506 16.0053 73.8853 15.668C74.12 15.316 74.3693 14.9787 74.6333 14.656L69.6393 14.678C68.7886 14.6927 68.1286 14.9787 67.6593 15.536C67.2046 16.0787 66.9773 16.966 66.9773 18.198H66.0093L66.1413 13.6H77.1413V14.656L69.7713 25.854C69.17 26.7487 68.6273 27.4453 68.1433 27.944L73.0493 27.922C73.9586 27.9073 74.714 27.6287 75.3153 27.086C75.9313 26.5287 76.2393 25.6413 76.2393 24.424H77.2293L77.0973 29H65.7893ZM86.6559 29.352C85.6146 29.352 84.6759 29.1173 83.8399 28.648C83.0039 28.1787 82.3366 27.526 81.8379 26.69C81.3539 25.8393 81.1119 24.864 81.1119 23.764C81.1119 22.576 81.3539 21.5273 81.8379 20.618C82.3366 19.694 83.0039 18.968 83.8399 18.44C84.6759 17.912 85.6073 17.648 86.6339 17.648C87.6753 17.648 88.6139 17.89 89.4499 18.374C90.2859 18.8433 90.9459 19.5033 91.4299 20.354C91.9286 21.19 92.1779 22.158 92.1779 23.258C92.1779 24.4313 91.9359 25.48 91.4519 26.404C90.9679 27.3133 90.3079 28.032 89.4719 28.56C88.6506 29.088 87.7119 29.352 86.6559 29.352ZM86.8099 28.252C87.5139 28.252 88.0639 28.0393 88.4599 27.614C88.8706 27.174 89.1639 26.624 89.3399 25.964C89.5159 25.2893 89.6039 24.5927 89.6039 23.874C89.6039 23.2433 89.5453 22.6273 89.4279 22.026C89.3253 21.41 89.1566 20.8527 88.9219 20.354C88.6873 19.8553 88.3793 19.4593 87.9979 19.166C87.6166 18.858 87.1546 18.7113 86.6119 18.726C85.9079 18.726 85.3359 18.9387 84.8959 19.364C84.4706 19.7893 84.1626 20.3393 83.9719 21.014C83.7813 21.674 83.6859 22.378 83.6859 23.126C83.6859 23.9913 83.7959 24.8127 84.0159 25.59C84.2359 26.3673 84.5733 27.0053 85.0279 27.504C85.4973 28.0027 86.0913 28.252 86.8099 28.252ZM96.031 28.076C96.471 28.076 96.779 27.9733 96.955 27.768C97.131 27.5627 97.2337 27.2767 97.263 26.91C97.307 26.5433 97.329 26.118 97.329 25.634V21.058C97.329 20.8233 97.329 20.574 97.329 20.31C97.3437 20.046 97.373 19.7747 97.417 19.496C97.1677 19.496 96.9037 19.5033 96.625 19.518C96.3463 19.5327 96.0897 19.5473 95.855 19.562V18.396H96.603C97.219 18.396 97.681 18.33 97.989 18.198C98.3117 18.066 98.5537 17.9267 98.715 17.78H99.507C99.5363 17.9853 99.5583 18.2713 99.573 18.638C99.5877 19.0047 99.6023 19.4153 99.617 19.87C100.028 19.2687 100.541 18.748 101.157 18.308C101.773 17.868 102.433 17.648 103.137 17.648C103.592 17.648 103.98 17.7727 104.303 18.022C104.64 18.2567 104.809 18.6453 104.809 19.188C104.809 19.4227 104.714 19.6867 104.523 19.98C104.332 20.2733 104.01 20.4127 103.555 20.398C103.247 20.3833 102.976 20.266 102.741 20.046C102.521 19.826 102.418 19.5253 102.433 19.144C102.081 19.144 101.729 19.254 101.377 19.474C101.025 19.6793 100.695 19.958 100.387 20.31C100.079 20.662 99.8297 21.0433 99.639 21.454V26.272C99.639 26.536 99.6317 26.8073 99.617 27.086C99.617 27.35 99.595 27.6213 99.551 27.9C99.7857 27.8853 100.028 27.878 100.277 27.878C100.526 27.8633 100.754 27.8487 100.959 27.834V29H96.031V28.076ZM114.322 29C114.293 28.7653 114.271 28.56 114.256 28.384C114.242 28.208 114.22 28.0247 114.19 27.834C113.178 28.846 112.049 29.352 110.802 29.352C109.746 29.352 108.947 29.0953 108.404 28.582C107.876 28.054 107.612 27.4013 107.612 26.624C107.612 25.9493 107.81 25.3627 108.206 24.864C108.602 24.3653 109.123 23.962 109.768 23.654C110.414 23.3313 111.118 23.0967 111.88 22.95C112.643 22.7887 113.391 22.708 114.124 22.708V21.41C114.124 20.9407 114.08 20.508 113.992 20.112C113.904 19.7013 113.721 19.3713 113.442 19.122C113.164 18.858 112.746 18.726 112.188 18.726C111.807 18.7113 111.426 18.7847 111.044 18.946C110.663 19.0927 110.37 19.342 110.164 19.694C110.282 19.8113 110.355 19.9507 110.384 20.112C110.428 20.2587 110.45 20.398 110.45 20.53C110.45 20.7353 110.362 20.97 110.186 21.234C110.01 21.4833 109.71 21.6007 109.284 21.586C108.932 21.586 108.661 21.4687 108.47 21.234C108.294 20.9847 108.206 20.6987 108.206 20.376C108.206 19.848 108.397 19.3787 108.778 18.968C109.174 18.5573 109.702 18.2347 110.362 18C111.037 17.7653 111.8 17.648 112.65 17.648C113.912 17.648 114.85 17.978 115.466 18.638C116.097 19.298 116.412 20.3393 116.412 21.762C116.412 22.5687 116.405 23.324 116.39 24.028C116.39 24.7173 116.39 25.4653 116.39 26.272C116.39 26.492 116.383 26.7413 116.368 27.02C116.354 27.2987 116.332 27.592 116.302 27.9C116.552 27.8853 116.808 27.8707 117.072 27.856C117.336 27.8413 117.586 27.834 117.82 27.834V29H114.322ZM114.124 23.72C113.494 23.7493 112.856 23.8593 112.21 24.05C111.58 24.226 111.052 24.5047 110.626 24.886C110.216 25.2527 110.018 25.7367 110.032 26.338C110.062 26.8367 110.23 27.2033 110.538 27.438C110.846 27.6727 111.198 27.79 111.594 27.79C112.108 27.79 112.562 27.6947 112.958 27.504C113.354 27.2987 113.743 27.02 114.124 26.668C114.11 26.5067 114.102 26.3453 114.102 26.184C114.102 26.008 114.102 25.8247 114.102 25.634C114.102 25.502 114.102 25.26 114.102 24.908C114.117 24.556 114.124 24.16 114.124 23.72ZM129.377 29V28.032C129.861 28.0173 130.206 27.922 130.411 27.746C130.631 27.5553 130.771 27.284 130.829 26.932C130.888 26.58 130.917 26.1327 130.917 25.59V16.438C130.917 15.7633 130.939 15.1913 130.983 14.722C130.734 14.7367 130.463 14.7513 130.169 14.766C129.876 14.7807 129.612 14.7953 129.377 14.81V13.6H134.789V14.568C134.32 14.5827 133.975 14.6853 133.755 14.876C133.535 15.052 133.396 15.316 133.337 15.668C133.279 16.02 133.249 16.4673 133.249 17.01V26.118C133.249 26.514 133.242 26.866 133.227 27.174C133.227 27.4673 133.213 27.7093 133.183 27.9L136.901 27.856C137.811 27.8413 138.507 27.548 138.991 26.976C139.475 26.3893 139.717 25.4653 139.717 24.204H140.707L140.575 29H129.377ZM150.951 29C150.921 28.7653 150.899 28.56 150.885 28.384C150.87 28.208 150.848 28.0247 150.819 27.834C149.807 28.846 148.677 29.352 147.431 29.352C146.375 29.352 145.575 29.0953 145.033 28.582C144.505 28.054 144.241 27.4013 144.241 26.624C144.241 25.9493 144.439 25.3627 144.835 24.864C145.231 24.3653 145.751 23.962 146.397 23.654C147.042 23.3313 147.746 23.0967 148.509 22.95C149.271 22.7887 150.019 22.708 150.753 22.708V21.41C150.753 20.9407 150.709 20.508 150.621 20.112C150.533 19.7013 150.349 19.3713 150.071 19.122C149.792 18.858 149.374 18.726 148.817 18.726C148.435 18.7113 148.054 18.7847 147.673 18.946C147.291 19.0927 146.998 19.342 146.793 19.694C146.91 19.8113 146.983 19.9507 147.013 20.112C147.057 20.2587 147.079 20.398 147.079 20.53C147.079 20.7353 146.991 20.97 146.815 21.234C146.639 21.4833 146.338 21.6007 145.913 21.586C145.561 21.586 145.289 21.4687 145.099 21.234C144.923 20.9847 144.835 20.6987 144.835 20.376C144.835 19.848 145.025 19.3787 145.407 18.968C145.803 18.5573 146.331 18.2347 146.991 18C147.665 17.7653 148.428 17.648 149.279 17.648C150.54 17.648 151.479 17.978 152.095 18.638C152.725 19.298 153.041 20.3393 153.041 21.762C153.041 22.5687 153.033 23.324 153.019 24.028C153.019 24.7173 153.019 25.4653 153.019 26.272C153.019 26.492 153.011 26.7413 152.997 27.02C152.982 27.2987 152.96 27.592 152.931 27.9C153.18 27.8853 153.437 27.8707 153.701 27.856C153.965 27.8413 154.214 27.834 154.449 27.834V29H150.951ZM150.753 23.72C150.122 23.7493 149.484 23.8593 148.839 24.05C148.208 24.226 147.68 24.5047 147.255 24.886C146.844 25.2527 146.646 25.7367 146.661 26.338C146.69 26.8367 146.859 27.2033 147.167 27.438C147.475 27.6727 147.827 27.79 148.223 27.79C148.736 27.79 149.191 27.6947 149.587 27.504C149.983 27.2987 150.371 27.02 150.753 26.668C150.738 26.5067 150.731 26.3453 150.731 26.184C150.731 26.008 150.731 25.8247 150.731 25.634C150.731 25.502 150.731 25.26 150.731 24.908C150.745 24.556 150.753 24.16 150.753 23.72ZM158.576 15.69C158.576 15.4407 158.576 15.1913 158.576 14.942C158.576 14.678 158.598 14.3993 158.642 14.106C158.378 14.106 158.106 14.1207 157.828 14.15C157.564 14.1647 157.314 14.172 157.08 14.172V13.006C158.062 13.006 158.759 12.94 159.17 12.808C159.595 12.676 159.888 12.5367 160.05 12.39H160.864V18.902C161.744 18.066 162.814 17.648 164.076 17.648C164.985 17.648 165.799 17.8753 166.518 18.33C167.251 18.7847 167.823 19.43 168.234 20.266C168.659 21.102 168.872 22.092 168.872 23.236C168.872 24.4533 168.622 25.524 168.124 26.448C167.625 27.372 166.95 28.0907 166.1 28.604C165.249 29.1027 164.31 29.352 163.284 29.352C162.829 29.352 162.294 29.264 161.678 29.088C161.076 28.912 160.541 28.5527 160.072 28.01L159.5 29H158.532L158.576 15.69ZM160.864 25.59C160.864 26.2793 160.974 26.8147 161.194 27.196C161.414 27.5773 161.692 27.8413 162.03 27.988C162.382 28.1347 162.748 28.208 163.13 28.208C163.819 28.2227 164.398 28.032 164.868 27.636C165.337 27.24 165.689 26.7047 165.924 26.03C166.173 25.3407 166.298 24.5633 166.298 23.698C166.298 22.818 166.188 22.026 165.968 21.322C165.748 20.618 165.41 20.0607 164.956 19.65C164.501 19.2247 163.929 19.0193 163.24 19.034C162.785 19.034 162.345 19.144 161.92 19.364C161.509 19.5693 161.157 19.8407 160.864 20.178V25.59ZM177.433 29.352C176.729 29.352 176.083 29.2567 175.497 29.066C174.925 28.89 174.463 28.6773 174.111 28.428L174.177 29.154H173.011L172.901 25.37H173.825C173.854 25.9273 174.023 26.426 174.331 26.866C174.639 27.2913 175.035 27.6287 175.519 27.878C176.017 28.1273 176.553 28.252 177.125 28.252C177.462 28.252 177.792 28.2007 178.115 28.098C178.437 27.9807 178.709 27.812 178.929 27.592C179.149 27.3573 179.259 27.0713 179.259 26.734C179.244 26.1767 178.987 25.7587 178.489 25.48C178.005 25.1867 177.396 24.8933 176.663 24.6C176.076 24.38 175.489 24.1307 174.903 23.852C174.316 23.5733 173.825 23.214 173.429 22.774C173.047 22.3193 172.857 21.7107 172.857 20.948C172.857 20.4933 172.974 20.0093 173.209 19.496C173.443 18.9827 173.847 18.55 174.419 18.198C174.991 17.8313 175.761 17.648 176.729 17.648C177.125 17.648 177.572 17.714 178.071 17.846C178.569 17.978 179.024 18.2053 179.435 18.528L179.413 17.758H180.579V21.63H179.633C179.589 21.1167 179.449 20.64 179.215 20.2C178.995 19.76 178.679 19.4007 178.269 19.122C177.858 18.8433 177.359 18.704 176.773 18.704C176.186 18.704 175.717 18.8507 175.365 19.144C175.013 19.4227 174.837 19.7747 174.837 20.2C174.837 20.6253 174.969 20.97 175.233 21.234C175.511 21.498 175.871 21.7253 176.311 21.916C176.751 22.1067 177.227 22.2973 177.741 22.488C178.357 22.7373 178.936 23.0087 179.479 23.302C180.021 23.5953 180.461 23.962 180.799 24.402C181.136 24.842 181.305 25.3993 181.305 26.074C181.305 26.822 181.114 27.438 180.733 27.922C180.366 28.406 179.882 28.7653 179.281 29C178.694 29.2347 178.078 29.352 177.433 29.352Z" fill="black"/>
<rect width="41" height="41" fill="black"/>
<path d="M11.106 29.9041L29.8893 9.7749" stroke="white" stroke-width="3"/>
<path d="M9.4998 18.5L16.8893 10.7749" stroke="white" stroke-width="3"/>
<path d="M23.4998 31.5L30.8893 23.7749" stroke="white" stroke-width="3"/>
</svg>
