<?xml version="1.0" encoding="utf-8"?>
<!-- Generator: Adobe Illustrator 22.1.0, SVG Export Plug-In . SVG Version: 6.00 Build 0)  -->
<svg version="1.1" id="Layer_1" xmlns="http://www.w3.org/2000/svg" xmlns:xlink="http://www.w3.org/1999/xlink" x="0px" y="0px"
	 viewBox="0 0 512 512" style="enable-background:new 0 0 512 512;" xml:space="preserve">
<g>
	<path fill="#F96767" d="M31,31v450h450V31H31z M404.9,137.6l-24.1,23.1c-2.1,1.6-3.1,4.2-2.7,6.7v170.1c-0.4,2.6,0.6,5.2,2.7,6.7l23.6,23.1v5.1
		H285.8v-4.9l24.4-23.7c2.4-2.4,2.4-3.1,2.4-6.7V199.5l-67.9,172.4h-9.1l-79.1-172.4v115.5c-0.7,4.8,1,9.7,4.4,13.3l31.7,38.5v5.1
		h-90.2v-5.1l31.7-38.5c3.4-3.5,4.9-8.4,4.1-13.3V181.5c0.4-3.7-1-7.3-3.8-9.8l-28.2-34.1v-5.1H194l67.7,148.7l59.6-148.6h83.6
		V137.6z"/>
</g>
</svg>
